<?xml version="1.0" encoding="UTF-8" standalone="no"?>
<!-- Created with Inkscape (http://www.inkscape.org/) -->

<svg
   version="1.1"
   id="svg1"
   width="512"
   height="512"
   viewBox="0 0 512 512"
   sodipodi:docname="icon.svg"
   xml:space="preserve"
   inkscape:version="1.3.2 (091e20e, 2023-11-25, custom)"
   inkscape:export-filename="icon.png"
   inkscape:export-xdpi="96"
   inkscape:export-ydpi="96"
   xmlns:inkscape="http://www.inkscape.org/namespaces/inkscape"
   xmlns:sodipodi="http://sodipodi.sourceforge.net/DTD/sodipodi-0.dtd"
   xmlns:xlink="http://www.w3.org/1999/xlink"
   xmlns="http://www.w3.org/2000/svg"
   xmlns:svg="http://www.w3.org/2000/svg"><defs
     id="defs1"><style
       id="style1">.cls-1{fill:none;stroke:#020202;stroke-linecap:round;stroke-miterlimit:10;stroke-width:22px;}</style><inkscape:perspective
       sodipodi:type="inkscape:persp3d"
       inkscape:vp_x="0 : 526.18109 : 1"
       inkscape:vp_y="0 : 1000 : 0"
       inkscape:vp_z="744.09448 : 526.18109 : 1"
       inkscape:persp3d-origin="372.04724 : 350.78739 : 1"
       id="perspective2842" /><inkscape:perspective
       id="perspective2852"
       inkscape:persp3d-origin="0.5 : 0.33333333 : 1"
       inkscape:vp_z="1 : 0.5 : 1"
       inkscape:vp_y="0 : 1000 : 0"
       inkscape:vp_x="0 : 0.5 : 1"
       sodipodi:type="inkscape:persp3d" /><inkscape:perspective
       id="perspective2892"
       inkscape:persp3d-origin="0.5 : 0.33333333 : 1"
       inkscape:vp_z="1 : 0.5 : 1"
       inkscape:vp_y="0 : 1000 : 0"
       inkscape:vp_x="0 : 0.5 : 1"
       sodipodi:type="inkscape:persp3d" /><inkscape:perspective
       id="perspective2926"
       inkscape:persp3d-origin="0.5 : 0.33333333 : 1"
       inkscape:vp_z="1 : 0.5 : 1"
       inkscape:vp_y="0 : 1000 : 0"
       inkscape:vp_x="0 : 0.5 : 1"
       sodipodi:type="inkscape:persp3d" /><inkscape:perspective
       id="perspective2960"
       inkscape:persp3d-origin="0.5 : 0.33333333 : 1"
       inkscape:vp_z="1 : 0.5 : 1"
       inkscape:vp_y="0 : 1000 : 0"
       inkscape:vp_x="0 : 0.5 : 1"
       sodipodi:type="inkscape:persp3d" /></defs><sodipodi:namedview
     id="namedview1"
     pagecolor="#ffffff"
     bordercolor="#000000"
     borderopacity="0.25"
     inkscape:showpageshadow="2"
     inkscape:pageopacity="0.0"
     inkscape:pagecheckerboard="0"
     inkscape:deskcolor="#d1d1d1"
     inkscape:zoom="1.1338568"
     inkscape:cx="143.31616"
     inkscape:cy="250.91353"
     inkscape:window-width="1920"
     inkscape:window-height="1017"
     inkscape:window-x="-8"
     inkscape:window-y="-8"
     inkscape:window-maximized="1"
     inkscape:current-layer="g1" /><g
     inkscape:groupmode="layer"
     inkscape:label="icon"
     id="g1"
     style="display:inline"><path
       style="display:inline;fill:#000000;fill-opacity:1;stroke:#ffffff;stroke-width:5.37731;stroke-linecap:round;stroke-linejoin:round;stroke-dashoffset:1511.81;paint-order:markers stroke fill"
       id="path2"
       sodipodi:type="arc"
       sodipodi:cx="256.2052"
       sodipodi:cy="255.32324"
       sodipodi:rx="221.47501"
       sodipodi:ry="221.47467"
       sodipodi:start="1.6751"
       sodipodi:end="1.6745106"
       sodipodi:arc-type="arc"
       d="M 233.14641,475.59426 A 221.47501,221.47467 0 0 1 35.930449,232.29694 221.47501,221.47467 0 0 1 279.19908,35.045434 221.47501,221.47467 0 0 1 476.48673,278.28463 221.47501,221.47467 0 0 1 233.27624,475.60782"
       inkscape:label="container"
       sodipodi:open="true" /><g
       id="g3"
       inkscape:label="content"
       transform="matrix(0.72374313,0,0,0.72374313,77.868186,83.797679)"
       style="display:inline"><g
         inkscape:label="passBandFilter"
         id="layer1"
         transform="matrix(2.0261916,0,0,1.457872,1193.5302,1397.7523)"
         style="display:none;fill:#ffffff"><path
           sodipodi:nodetypes="csc"
           id="use3909-1"
           d="m -523.50969,-846.50015 c 0,0 28.5714,-61.42857 62.1428,0 33.5715,61.42857 61.4286,-1.07143 61.4286,-1.07143"
           style="fill:none;stroke:#ffffff;stroke-width:3;stroke-linecap:butt;stroke-linejoin:miter;stroke-miterlimit:4;stroke-dasharray:none;stroke-opacity:1" /><path
           id="use3911-7"
           d="m -474.10159,-836.05292 21.4112,-21.68926"
           style="fill:#ffffff;stroke:#ffffff;stroke-width:3;stroke-linecap:butt;stroke-linejoin:miter;stroke-miterlimit:4;stroke-dasharray:none;stroke-opacity:1" /><path
           sodipodi:nodetypes="csc"
           id="use3913-4"
           d="m -522.89949,-810.40828 c 0,0 28.5714,-61.42857 62.1428,0 33.5714,61.42857 61.4286,-1.07143 61.4286,-1.07143"
           style="fill:none;stroke:#ffffff;stroke-width:3;stroke-linecap:butt;stroke-linejoin:miter;stroke-miterlimit:4;stroke-dasharray:none;stroke-opacity:1" /><use
           x="0"
           y="0"
           xlink:href="#use3913-4"
           id="use3919-4"
           transform="translate(-1.4285714e-5,41.999997)"
           width="744.09448"
           height="1052.3622"
           style="fill:#ffffff" /><use
           x="0"
           y="0"
           xlink:href="#use3911-7"
           id="use3921-8"
           transform="translate(-1.4285714e-5,75.999997)"
           width="744.09448"
           height="1052.3622"
           style="fill:none" /></g><g
         id="g2"
         transform="matrix(0.36546069,0,0,0.36546069,75.014751,37.312874)"
         style="display:inline"
         inkscape:label="settingsFilter"><line
           class="cls-1"
           x1="184.63"
           x2="312.89999"
           y1="292.84"
           y2="292.84"
           id="line1"
           style="stroke:#ffffff;stroke-opacity:1" /><line
           class="cls-1"
           x1="541.66998"
           x2="815.37"
           y1="292.84"
           y2="292.84"
           id="line2"
           style="stroke:#ffffff;stroke-opacity:1" /><circle
           class="cls-1"
           cx="427.04001"
           cy="292.84"
           r="70.459999"
           id="circle2"
           style="stroke:#ffffff;stroke-opacity:1" /><line
           class="cls-1"
           x1="815.37"
           x2="687.09998"
           y1="499.06"
           y2="499.06"
           id="line3"
           style="stroke:#ffffff;stroke-opacity:1" /><line
           class="cls-1"
           x1="458.32999"
           x2="184.63"
           y1="499.06"
           y2="499.06"
           id="line4"
           style="stroke:#ffffff;stroke-opacity:1" /><circle
           class="cls-1"
           cx="572.96002"
           cy="499.06"
           r="70.459999"
           id="circle4"
           style="stroke:#ffffff;stroke-opacity:1" /><line
           class="cls-1"
           x1="815.37"
           x2="597.03003"
           y1="707.15997"
           y2="707.15997"
           id="line5"
           style="stroke:#ffffff;stroke-opacity:1" /><line
           class="cls-1"
           x1="368.26001"
           x2="184.63"
           y1="707.15997"
           y2="707.15997"
           id="line6"
           style="stroke:#ffffff;stroke-opacity:1" /><circle
           class="cls-1"
           cx="482.89001"
           cy="707.15997"
           r="70.459999"
           id="circle6"
           style="stroke:#ffffff;stroke-opacity:1" /></g><path
         style="fill:#ffffff;stroke:#ffffff;stroke-opacity:1;fill-opacity:1"
         d="m 148.96022,444.60116 c -8.6009,-8.97741 -2.20637,-16.52064 14.57676,-17.19528 13.07216,-0.52546 13.10751,-0.53711 19.57669,-6.44784 6.78645,-6.20061 11.72718,-20.04706 12.85481,-36.02577 0.59642,-8.45137 0.59642,-8.45137 -71.79946,-8.73888 -108.019405,-0.42898 -95.895892,19.02255 -95.895892,-153.85986 0,-96.7169 -5.200592,-132.993013 5.025148,-142.042603 5.49961,-4.867052 2.748891,-2.294277 8.485226,-7.253978 7.120131,-6.156146 414.523898,-3.360531 419.616918,-0.851269 5.76091,2.838327 11.20204,8.04664 14.13111,13.52649 3.5521,6.64545 3.53767,266.76819 -0.0152,273.41715 -9.04479,16.92687 -7.94839,16.72569 -92.99323,17.06384 -81.78492,0.32519 -74.26232,-1.67816 -70.71318,18.83173 3.94728,22.8107 12.862,32.38099 30.16288,32.38099 17.00978,0 23.79848,7.31233 15.71141,16.92328 -3.91447,4.65208 -204.27748,4.91319 -208.72402,0.272 z m 151.4069,-20.54321 c -5.14037,-8.31729 -9.73918,-28.82458 -11.48825,-47.07569 -0.6009,-6.27027 -71.5731,-5.54797 -71.61394,0.67362 -0.079,12.03291 -4.85536,33.64761 -9.46512,42.83288 -3.47147,6.91712 -3.47147,6.91712 45.58249,6.91712 49.05395,0 49.05395,0 46.98482,-3.34793 z m 154.60025,-71.06538 c 3.34821,-2.87988 5.14596,-252.12747 1.86429,-258.47351 -2.78675,-5.38898 7.02246,-5.15614 -205.39516,-4.87535 -198.336631,0.26217 -198.336631,0.26217 -200.750002,3.06793 -4.207867,4.89203 -3.716051,255.54541 0.509707,259.77116 4.22536,4.22536 398.872065,4.72361 403.771165,0.50977 z"
         id="path1"
         sodipodi:nodetypes="sssssssssssssssssssssssssssss"
         inkscape:label="monitor" /></g></g></svg>
